<svg width="56" height="54" viewBox="0 0 56 54" xmlns="http://www.w3.org/2000/svg">
  <rect width="56" height="54" fill="#22007F"/>
  <path d="M0.5 0V19.712H5.03308V4.42093H50.9898V49.5814H20.2788V54H55.4949V0H0.5Z" fill="#fff"/>
  <path d="M11.1052 49.5791H11.0562C10.2583 49.5977 9.46506 49.4542 8.72637 49.1576C7.98767 48.861 7.31944 48.4177 6.76365 47.8556C6.20415 47.3087 5.76291 46.6565 5.46636 45.9382C5.1698 45.2199 5.02402 44.4502 5.03776 43.6754V24.1444H0.5V43.6776C0.524524 46.4126 1.64539 49.028 3.62008 50.9581C5.59477 52.8882 8.26447 53.9777 11.0515 53.9909H15.7224V49.5814H11.1052V49.5791Z" fill="#04DDB3"/>
</svg>
