<svg width="190" height="55" viewBox="0 0 190 55" fill="none" xmlns="http://www.w3.org/2000/svg">
<g clip-path="url(#clip0_168_7)">
<rect width="189" height="54" transform="translate(0.5 0.5)" fill="white"/>
<path d="M0.5 0.5V20.212H5.03308V4.92093H50.9898V50.0814H20.2788V54.5H55.4949V0.5H0.5Z" fill="#22007F"/>
<path d="M11.1052 50.0791H11.0562C10.2583 50.0977 9.46506 49.9542 8.72637 49.6576C7.98767 49.361 7.31944 48.9177 6.76365 48.3556C6.20415 47.8087 5.76291 47.1565 5.46636 46.4382C5.1698 45.7199 5.02402 44.9502 5.03776 44.1754V24.6444H0.5V44.1776C0.524524 46.9126 1.64539 49.528 3.62008 51.4581C5.59477 53.3882 8.26447 54.4777 11.0515 54.4909H15.7224V50.0814H11.1052V50.0791Z" fill="#04DDB3"/>
<path d="M84.1879 37.5268H84.1365C83.3392 37.5453 82.5465 37.4019 81.8083 37.1058C81.0701 36.8096 80.4021 36.367 79.8463 35.8057C79.2868 35.2581 78.8455 34.6055 78.5486 33.8869C78.2517 33.1683 78.1053 32.3984 78.1181 31.6231V12.0922H73.5826V31.6254C73.609 34.3598 74.7304 36.9742 76.7047 38.9039C78.679 40.8336 81.3477 41.9237 84.1341 41.9386H88.8167V37.5291H84.1879V37.5268Z" fill="#22007F"/>
<path d="M103.834 21.8416C100.913 21.8416 98.4356 22.8202 96.4006 24.7774C95.4187 25.69 94.6405 26.7926 94.1151 28.0155C93.5897 29.2384 93.3285 30.555 93.3482 31.882C93.3482 34.8431 94.3454 37.3014 96.3399 39.2571C98.3312 41.2434 100.803 42.2365 103.755 42.2365C106.73 42.2365 109.242 41.2648 111.291 39.3213C113.34 37.3778 114.357 34.9531 114.341 32.0471C114.341 29.1777 113.329 26.7583 111.305 24.7888C109.26 22.8255 106.769 21.8431 103.834 21.8416ZM108.164 36.2526C107.589 36.8051 106.906 37.2391 106.157 37.5287C105.407 37.8184 104.607 37.958 103.802 37.9393C103.004 37.9583 102.211 37.8152 101.473 37.519C100.735 37.2228 100.067 36.7799 99.5114 36.2182C98.9416 35.6604 98.4941 34.994 98.1964 34.2601C97.8988 33.5262 97.7574 32.7403 97.7809 31.9508C97.7675 31.1806 97.9176 30.4161 98.2215 29.7059C98.5255 28.9957 98.9767 28.3554 99.5465 27.8255C100.707 26.7321 102.253 26.1214 103.861 26.1214C105.47 26.1214 107.016 26.7321 108.176 27.8255C109.307 28.9478 109.94 30.463 109.938 32.0414C109.936 33.6197 109.298 35.1333 108.164 36.2526Z" fill="#22007F"/>
<path d="M189.501 22.4396H184.37L178.753 33.5435L172.732 22.4396H167.459L176.308 38.1638L169.273 51.2616H174.388L189.501 22.4396Z" fill="#22007F"/>
<path d="M129.526 21.2503C127.352 21.249 125.232 21.9062 123.453 23.1319V12.0922H118.918V31.7446C118.935 33.7992 119.572 35.8028 120.748 37.5028C121.924 39.2028 123.587 40.5232 125.526 41.2975C127.466 42.0717 129.595 42.2653 131.647 41.8538C133.698 41.4423 135.58 40.444 137.054 38.9849C138.528 37.5258 139.529 35.6711 139.931 33.6546C140.333 31.6381 140.117 29.5499 139.312 27.6534C138.506 25.7568 137.146 24.1367 135.404 22.9972C133.662 21.8578 131.615 21.2499 129.521 21.2503H129.526ZM133.834 35.9615C133.259 36.5141 132.576 36.948 131.827 37.2377C131.078 37.5274 130.277 37.667 129.472 37.6483C128.674 37.6673 127.882 37.5242 127.143 37.228C126.405 36.9318 125.737 36.4889 125.182 35.9272C124.613 35.3704 124.166 34.7055 123.869 33.9733C123.571 33.2411 123.429 32.4569 123.451 31.6689C123.437 30.8991 123.586 30.1348 123.89 29.4246C124.193 28.7145 124.643 28.0739 125.212 27.5437C126.373 26.4468 127.921 25.834 129.533 25.834C131.144 25.834 132.692 26.4468 133.853 27.5437C134.979 28.6652 135.609 30.1771 135.607 31.7515C135.605 33.326 134.971 34.8361 133.841 35.9547L133.834 35.9615Z" fill="#22007F"/>
<path d="M155.272 21.2503C153.099 21.2487 150.978 21.9059 149.2 23.1319V12.0922H144.662V31.7446C144.68 33.7998 145.316 35.804 146.492 37.5047C147.668 39.2054 149.331 40.5264 151.271 41.3012C153.211 42.076 155.341 42.27 157.393 41.8586C159.445 41.4472 161.327 40.449 162.802 38.9896C164.276 37.5303 165.278 35.6752 165.68 33.6582C166.082 31.6411 165.867 29.5524 165.061 27.6553C164.255 25.7582 162.895 24.1376 161.152 22.9978C159.41 21.858 157.362 21.2499 155.268 21.2503H155.272ZM159.581 35.9615C159.006 36.5141 158.323 36.948 157.574 37.2377C156.824 37.5274 156.024 37.667 155.219 37.6483C154.421 37.6673 153.628 37.5242 152.89 37.228C152.152 36.9318 151.484 36.4889 150.928 35.9272C149.772 34.795 149.195 33.3725 149.198 31.6598C149.185 30.8896 149.335 30.1251 149.639 29.4149C149.943 28.7047 150.394 28.0643 150.963 27.5345C152.124 26.4376 153.673 25.8249 155.284 25.8249C156.895 25.8249 158.444 26.4376 159.605 27.5345C160.731 28.656 161.361 30.1679 161.359 31.7423C161.356 33.3168 160.722 34.8269 159.593 35.9455L159.581 35.9615Z" fill="#22007F"/>
</g>
<defs>
<clipPath id="clip0_168_7">
<rect width="189" height="54" fill="white" transform="translate(0.5 0.5)"/>
</clipPath>
</defs>
</svg>
